<svg version="1.1" id="Layer_1" xmlns="http://www.w3.org/2000/svg" xmlns:xlink="http://www.w3.org/1999/xlink" x="0px" y="0px"
	 width="100%" viewBox="0 0 500 500" enable-background="new 0 0 500 500" xml:space="preserve">
<path fill="#FFD703" opacity="1.000000" stroke="none" 
	d="
M116.166885,471.012665 
	C115.978188,470.705933 115.789490,470.399170 114.994064,469.744781 
	C95.902710,469.295380 77.418091,469.193665 58.933472,469.091919 
	C58.933472,469.091919 59.001793,469.031738 58.983490,468.582550 
	C58.976475,321.477905 58.987759,174.822433 58.999043,28.166958 
	C88.987473,28.111670 119.109917,26.316389 148.917252,28.612186 
	C168.822586,30.145321 188.631958,28.227343 208.977951,30.520767 
	C208.977951,66.086128 208.977951,101.918221 208.977951,139.136734 
	C216.228714,130.509323 222.623871,123.036530 228.864792,115.437057 
	C235.592407,107.244972 242.164154,98.925049 248.824493,90.677536 
	C258.669739,78.486183 268.504333,66.286011 278.399353,54.135124 
	C284.696533,46.402348 290.948120,38.621868 297.559418,31.163530 
	C299.060455,29.470190 301.959686,28.149128 304.225891,28.132936 
	C332.550598,27.930565 361.008392,26.336205 389.159607,28.555271 
	C409.692413,30.173805 430.154999,28.486372 450.427094,30.376472 
	C453.056793,39.451344 449.393188,46.295284 443.639099,53.065926 
	C432.335876,66.366165 421.675232,80.210884 410.663086,93.760689 
	C401.385498,105.176125 391.907959,116.429382 382.662445,127.870399 
	C372.312897,140.677612 362.169342,153.651138 351.851837,166.484497 
	C344.274384,175.909653 336.517212,185.190155 328.918915,194.598740 
	C318.157166,207.924500 307.489197,221.326035 296.713409,234.640335 
	C295.685089,235.910919 294.176758,236.792984 292.582367,238.110672 
	C297.645111,244.567596 302.315918,250.545151 307.008698,256.505371 
	C316.683899,268.793610 326.324585,281.109406 336.066925,293.344238 
	C344.612488,304.076019 353.293884,314.699585 361.885529,325.394836 
	C371.595642,337.482300 381.305389,349.570343 390.954071,361.706787 
	C399.369141,372.291534 407.694153,382.947845 416.067993,393.565399 
	C427.066223,407.510590 438.066254,421.454315 449.080139,435.387085 
	C453.231323,440.638458 456.910980,446.399811 461.728424,450.952057 
	C467.545898,456.449341 468.814117,462.766663 467.448730,470.552612 
	C432.903961,471.017944 398.890900,471.027069 364.877869,471.036194 
	C364.433807,470.709473 363.989716,470.382751 362.935394,469.720703 
	C344.200134,469.290100 326.075134,469.194885 307.950134,469.099640 
	C301.958527,462.015564 295.902771,454.984528 289.990967,447.834473 
	C281.984894,438.151611 274.093842,428.373627 266.144775,418.643555 
	C258.503906,409.290833 250.819138,399.973785 243.213821,390.592255 
	C235.108932,380.594513 227.088150,370.528595 219.002350,360.515289 
	C216.093185,356.912659 213.101700,353.376526 208.980698,350.172455 
	C208.980698,390.143005 208.980698,430.113556 208.448853,470.546478 
	C177.333618,471.010101 146.750259,471.011383 116.166885,471.012665 
M120.970535,467.988068 
	C149.229950,467.988068 177.489349,467.988068 206.188431,467.988068 
	C206.188431,405.321716 206.188431,343.252411 206.188431,281.210968 
	C215.452347,280.692047 215.541351,280.776276 219.609451,286.116302 
	C222.178406,289.488495 224.876083,292.764191 227.562378,296.045197 
	C235.225113,305.404388 242.962891,314.702637 250.576523,324.101501 
	C261.568024,337.670197 272.441010,351.334961 283.432007,364.904083 
	C291.149719,374.432159 299.034424,383.825012 306.746552,393.357513 
	C317.521790,406.676147 328.200623,420.072754 338.930481,433.428131 
	C347.003143,443.476196 355.079437,453.521454 363.179993,463.547028 
	C365.394470,466.287689 367.701965,468.159729 371.841980,468.125885 
	C400.836884,467.888763 429.834656,468.000336 458.831512,468.000336 
	C460.449890,468.000336 462.068298,468.000336 463.893616,468.000336 
	C464.019592,463.281616 464.461792,459.460938 460.658173,455.838715 
	C456.216339,451.608582 452.875916,446.224365 449.040955,441.354004 
	C439.362396,429.062469 429.723969,416.738861 419.975494,404.502960 
	C411.426758,393.772949 402.697479,383.186829 394.144348,372.460327 
	C384.288513,360.100098 374.530853,347.661530 364.744873,335.245728 
	C356.473114,324.751068 348.260132,314.209930 339.951233,303.744843 
	C330.309509,291.601013 320.572906,279.532593 310.912628,267.403442 
	C303.253754,257.787140 295.647888,248.128632 288.153656,238.659683 
	C294.671997,230.654312 300.866516,223.048950 307.058502,215.441528 
	C314.692291,206.062729 322.362305,196.713089 329.946533,187.294388 
	C338.946411,176.117584 347.815552,164.835220 356.846191,153.683472 
	C364.770966,143.897308 372.919556,134.292160 380.826569,124.491882 
	C391.167694,111.674606 401.296814,98.686142 411.649475,85.878304 
	C422.231506,72.786613 433.044281,59.881172 443.599121,46.767872 
	C446.462677,43.210224 450.109955,39.593163 447.230835,34.000942 
	C418.699280,34.000942 390.052368,33.976849 361.406006,34.089394 
	C360.265045,34.093872 358.856018,35.164867 358.035065,36.132099 
	C352.531586,42.615944 347.149841,49.203201 341.736206,55.763203 
	C335.176208,63.712322 328.583771,71.635178 322.077911,79.628426 
	C313.941284,89.625298 305.924255,99.719620 297.770874,109.702698 
	C289.595459,119.712769 281.264465,129.595871 273.096313,139.611786 
	C265.055695,149.471344 257.152130,159.442551 249.154816,169.337601 
	C240.740219,179.748917 232.588852,190.396423 223.721878,200.408875 
	C219.238159,205.471802 216.316788,214.428940 205.892914,210.216125 
	C205.892914,151.764908 205.892914,93.033600 205.892914,34.108219 
	C176.974457,34.108219 148.508774,34.108219 119.514091,34.720898 
	C119.344315,36.192200 119.026077,37.663475 119.025848,39.134804 
	C119.003265,180.315063 119.001129,321.495331 119.047966,462.675598 
	C119.048538,464.414398 119.696983,466.153015 120.970535,467.988068 
M116.000366,420.500000 
	C116.000366,291.106171 116.000366,161.712311 116.000366,32.295490 
	C97.725052,32.295490 79.998230,32.295490 62.273056,32.295490 
	C62.273056,176.954697 62.273056,321.317871 62.273056,465.704498 
	C80.274887,465.704498 98.001709,465.704498 116.000366,465.704498 
	C116.000366,450.773529 116.000366,436.136780 116.000366,420.500000 
M242.480072,171.009796 
	C244.158051,169.001236 245.840805,166.996643 247.513153,164.983414 
	C254.306976,156.804703 261.143768,148.661102 267.877716,140.433350 
	C276.246185,130.208466 284.496033,119.886520 292.858673,109.656784 
	C299.481262,101.555580 306.238556,93.564423 312.860291,85.462479 
	C321.220184,75.233818 329.504150,64.943062 337.819061,54.677605 
	C343.806427,47.285709 349.790741,39.891357 356.179962,31.999664 
	C354.304596,31.999664 353.314270,31.999662 352.323914,31.999666 
	C336.338165,31.999710 320.352356,31.977516 304.366913,32.047070 
	C303.235077,32.051998 301.741821,32.395531 301.038818,33.156456 
	C297.928650,36.522972 294.984436,40.049702 292.092773,43.609905 
	C283.972839,53.607212 275.956390,63.688786 267.808807,73.663361 
	C259.638123,83.666237 251.318405,93.547318 243.137848,103.542198 
	C234.768204,113.768097 226.677643,124.229050 218.101822,134.277237 
	C212.441772,140.909042 207.427704,147.382919 208.890457,156.941467 
	C209.537842,161.171860 208.999649,165.583710 208.999649,169.913177 
	C208.999649,182.207718 208.999649,194.502258 208.999649,206.845123 
	C210.733994,206.845123 212.722488,207.406647 213.257858,206.761780 
	C222.934402,195.106216 232.435715,183.305145 242.480072,171.009796 
M294.979828,385.469910 
	C288.754761,377.896118 282.474548,370.366821 276.317566,362.738098 
	C266.999084,351.192200 257.798828,339.550964 248.488495,327.998444 
	C238.553711,315.671082 228.727539,303.247162 218.433182,291.225708 
	C216.231628,288.654816 214.947418,283.079712 208.999649,285.539642 
	C208.999649,302.334839 208.805511,319.145508 209.152496,335.945038 
	C209.227936,339.597748 210.553848,343.649170 212.523972,346.738953 
	C215.489578,351.389984 219.562943,355.328491 223.107346,359.617859 
	C231.019196,369.192657 238.939697,378.760956 246.775131,388.398193 
	C257.890656,402.069763 268.941132,415.794281 280.003540,429.508972 
	C288.092224,439.537079 296.087494,449.641724 304.278961,459.584930 
	C306.253357,461.981598 308.780029,465.634125 311.154144,465.714478 
	C327.221893,466.258575 343.316895,465.998566 360.584717,465.998566 
	C355.982422,460.325073 352.046997,455.421661 348.055573,450.564240 
	C340.169983,440.967743 332.201080,431.439270 324.362976,421.804321 
	C314.685394,409.908264 305.105865,397.932465 294.979828,385.469910 
z"/>
<path fill="#FFD80A" opacity="1.000000" stroke="none" 
	d="
M58.586586,28.299335 
	C58.987759,174.822433 58.976475,321.477905 58.947872,468.606598 
	C58.620377,467.725220 58.038906,466.370697 58.038521,465.015991 
	C57.997631,320.315765 58.000038,175.615540 58.007656,30.915316 
	C58.007702,30.087446 58.116249,29.259579 58.586586,28.299335 
z"/>
<path fill="#FFE13F" opacity="1.000000" stroke="none" 
	d="
M365.108337,471.413696 
	C398.890900,471.027069 432.903961,471.017944 467.375061,471.010773 
	C467.206421,471.340546 466.579590,471.955475 465.953156,471.955048 
	C432.415039,471.933228 398.876923,471.859497 365.108337,471.413696 
z"/>
<path fill="#FFE13F" opacity="1.000000" stroke="none" 
	d="
M116.300491,471.424316 
	C146.750259,471.011383 177.333618,471.010101 208.375046,471.010803 
	C208.207672,471.340546 207.582199,471.955078 206.956848,471.954926 
	C176.782593,471.948669 146.608337,471.889374 116.300491,471.424316 
z"/>
<path fill="#FFE13F" opacity="1.000000" stroke="none" 
	d="
M59.163010,469.461792 
	C77.418091,469.193665 95.902710,469.295380 114.749786,469.618835 
	C96.539009,469.837616 77.965775,469.834656 59.163010,469.461792 
z"/>
<path fill="#FFE13F" opacity="1.000000" stroke="none" 
	d="
M308.176788,469.469177 
	C326.075134,469.194885 344.200134,469.290100 362.674896,469.610321 
	C344.817596,469.836426 326.610504,469.837555 308.176788,469.469177 
z"/>
<path fill="#FFDF32" opacity="1.000000" stroke="none" 
	d="
M119.778587,34.414558 
	C120.029839,178.397659 120.016594,322.687103 120.023193,467.434143 
	C119.696983,466.153015 119.048538,464.414398 119.047966,462.675598 
	C119.001129,321.495331 119.003265,180.315063 119.025848,39.134804 
	C119.026077,37.663475 119.344315,36.192200 119.778587,34.414558 
z"/>
</svg>